<?xml version="1.0" encoding="utf-8"?>
<!-- Generator: Adobe Illustrator 19.2.0, SVG Export Plug-In . SVG Version: 6.00 Build 0)  -->
<svg version="1.1" id="Layer_1" xmlns="http://www.w3.org/2000/svg" xmlns:xlink="http://www.w3.org/1999/xlink" x="0px" y="0px"
	 viewBox="0 0 984 380" style="enable-background:new 0 0 984 380;" xml:space="preserve">
<metadata><?xpacket begin="﻿" id="W5M0MpCehiHzreSzNTczkc9d"?>
<x:xmpmeta xmlns:x="adobe:ns:meta/" x:xmptk="Adobe XMP Core 5.6-c111 79.158366, 2015/09/25-01:12:00        ">
   <rdf:RDF xmlns:rdf="http://www.w3.org/1999/02/22-rdf-syntax-ns#">
      <rdf:Description rdf:about=""/>
   </rdf:RDF>
</x:xmpmeta>
                                                                                                    
                                                                                                    
                                                                                                    
                                                                                                    
                                                                                                    
                                                                                                    
                                                                                                    
                                                                                                    
                                                                                                    
                                                                                                    
                                                                                                    
                                                                                                    
                                                                                                    
                                                                                                    
                                                                                                    
                                                                                                    
                                                                                                    
                                                                                                    
                                                                                                    
                                                                                                    
                           
<?xpacket end="w"?></metadata>
<style type="text/css">
	.st0{fill:none;}
	.st1{fill:#F2BF00;}
</style>
<g id="Z5596e.tif">
	<g>
		<path class="st0" d="M173.2,232c2.7,0,5.1-2.3,5.1-5c0-2.8-2.2-5.1-5.1-5.1c-2.8,0-5.1,2.2-5.1,5
			C168.1,229.6,170.4,231.9,173.2,232z"/>
		<path class="st0" d="M186.6,265.6c4.7,0,8.5-3.7,8.5-8.4c0-4.7-3.7-8.5-8.4-8.5c-4.7,0-8.5,3.8-8.5,8.4
			C178.2,261.8,182,265.6,186.6,265.6z"/>
		<path class="st0" d="M168.1,272.6c0,18.7,0,37.3,0,56c0,1,0.1,2,0.3,2.9c1.6,6.7,7.9,11.2,14.7,10.4c6.9-0.8,12.1-6.6,12.1-13.5
			c0-18.5,0-37.1,0-55.6c0-0.3,0-0.7,0-1c-9.1,0-18.1,0-27.2,0C168.2,272,168.1,272.3,168.1,272.6z"/>
		<path class="st1" d="M220,159.2c0-7.4-6.1-13.5-13.5-13.5H157c-7.4,0-13.5,6.1-13.5,13.5c0,6.7,5,12.3,11.4,13.3
			c-0.2,1.5-0.4,3-0.4,4.5v153.8c0,15,12.3,27.2,27.2,27.2s27.2-12.3,27.2-27.2V177c0-1.5-0.1-3-0.4-4.5
			C215,171.5,220,165.9,220,159.2z M186.7,248.8c4.7,0,8.4,3.8,8.4,8.5c0,4.6-3.9,8.4-8.5,8.4c-4.6,0-8.4-3.9-8.4-8.5
			C178.2,252.5,182,248.7,186.7,248.8z M173.2,221.8c2.8,0,5.1,2.3,5.1,5.1c0,2.8-2.4,5-5.1,5c-2.8,0-5.1-2.3-5-5.2
			C168.2,224,170.4,221.8,173.2,221.8z M195.3,272.7c0,18.5,0,37.1,0,55.6c0,7-5.2,12.8-12.1,13.5c-6.8,0.8-13.1-3.7-14.7-10.4
			c-0.2-0.9-0.3-1.9-0.3-2.9c0-18.7,0-37.3,0-56c0-0.3,0-0.5,0-0.9c9,0,18,0,27.2,0C195.3,272,195.3,272.4,195.3,272.7z"/>
	</g>
</g>
<g id="N3tw8a.tif">
	<g>
		<path class="st1" d="M228.6,87.4c0,1.6,0,3.2,0,4.8c-0.1,0.9-0.2,1.7-0.3,2.6c-0.6,4.4-1.7,8.6-3.4,12.6
			c-3,6.9-7.5,12.8-13.5,17.4c-5.3,4.1-11.4,6.6-17.9,8.1c-0.6,0.1-1.1,0.2-1.7,0.3c0.1-0.2,0.3-0.3,0.5-0.4c2.2-1.2,4.1-2.8,5.5-5
			c1.7-2.7,2.3-5.6,2.4-8.7c0.1-2.5-0.4-4.9-1.5-7.1c-2.3-4.4-5.9-6.7-10.9-6.8c-1.8,0-3.6,0.4-5.4,0.9c-2.6,0.8-5.3,1.1-7.9,0.2
			c-3.9-1.3-6.2-4.1-7.5-7.9c-1.3-3.8-1.2-7.7-0.4-11.5c0.2-1,0.5-2,0.7-3c-0.1,0.1-0.2,0.1-0.2,0.1c-0.5,0.4-1,0.9-1.4,1.4
			c-8.2,8.4-12,18.3-10,30.1c1.3,7.6,5.1,13.8,11.4,18.2c0.8,0.6,1.7,1.1,2.6,1.7c-0.1,0-0.2,0-0.3,0c-0.1-0.1-0.2-0.1-0.3-0.1
			c-1.3-0.3-2.5-0.7-3.8-1c-5.8-1.7-11.2-4.1-16.1-7.8c-5.1-3.8-8.9-8.5-11.3-14.4c-3.2-7.8-3.4-15.8-1.5-23.9
			c1.8-7.4,5.6-13.6,10.9-19.1c3.7-3.9,7.9-7.2,12.1-10.5c3.5-2.7,7-5.4,10.2-8.6c2.9-2.8,5.3-5.9,6.8-9.7c1.9-5,1.9-10.1,1-15.3
			c-0.6-3.3-1.6-6.5-2.7-9.6c0,0,0.1,0,0.1,0c0.1,0.1,0.3,0.2,0.4,0.3c2.2,1.5,4.4,2.9,6.5,4.5c4.8,3.7,8.9,8,11.7,13.5
			c2.7,5.2,3.7,10.6,2.8,16.4c-0.8,5.4-3.2,10.1-7,14c-0.9,0.9-1.7,1.9-2.3,3.1c-2.2,4-1.1,8.2,2.6,10.5c2.3,1.4,4.7,1.7,7.3,1
			c4.8-1.4,7.8-5.9,7.4-11.2c-0.2-2.5-0.3-5,0-7.4c0.3-2.5,0.9-4.9,2.2-7.1c2.1-3.5,5.2-5.4,9.1-6.3c1.1-0.3,2.2-0.4,3.4-0.6
			c-0.5,1.2-1,2.2-1.4,3.3c-0.9,2.3-1.4,4.7-1.3,7.3c0.2,2.5,0.9,4.9,2.2,7c1.7,2.9,3.5,5.7,5.2,8.5c2.4,4,4.2,8.2,4.8,12.9
			C228.4,85.8,228.5,86.6,228.6,87.4z"/>
	</g>
</g>
<g>
	<path class="st1" d="M18.5,326.9V189.1h88.6v29.2H52.3v26.4h43.4v28.8H52.3v53.4H18.5z"/>
	<path class="st1" d="M265.5,326.9V189.1h57c8.1,0,15.2,1.3,21.1,4c5.9,2.7,10.8,6.1,14.7,10.4c3.9,4.3,6.7,9.2,8.6,14.7
		c1.9,5.5,2.8,11.2,2.8,16.9c0,4.9-0.7,9.7-2,14.4c-1.3,4.7-3.4,9-6.1,12.9c-2.7,3.9-6.2,7.4-10.3,10.3c-4.1,2.9-9,5.1-14.6,6.6
		l33.6,47.6h-38.8l-29.6-46h-3v46H265.5z M298.9,218.3v33.8h22c2.8,0,5.1-0.5,7-1.5c1.9-1,3.4-2.3,4.6-3.9c1.2-1.6,2.1-3.4,2.6-5.5
		c0.5-2.1,0.8-4.1,0.8-6.1s-0.3-4-0.8-6c-0.5-2-1.4-3.8-2.6-5.4c-1.2-1.6-2.7-2.9-4.6-3.9c-1.9-1-4.2-1.5-7-1.5H298.9z"/>
	<path class="st1" d="M393.9,326.9V189.1h89.4v29.2h-56v26.4h49.2v28.6h-49.2v24.4h57.8v29.2H393.9z"/>
	<path class="st1" d="M510.1,326.9V189.1h33.8v108.6h49.6v29.2H510.1z"/>
	<path class="st1" d="M693.9,295.3h-43.4l-11.6,31.6h-35.8l50.8-137.8h36.4l50.6,137.8h-35.4L693.9,295.3z M659.5,266.5h25.8
		l-13.4-45.4L659.5,266.5z"/>
	<path class="st1" d="M852.7,226.1c0,2-0.3,4.3-0.9,7c-0.6,2.7-1.6,5.3-3.1,7.9c-1.5,2.6-3.4,5-5.9,7.3c-2.5,2.3-5.6,3.9-9.5,5
		c4.7,0.7,8.7,2.1,12.1,4.4c3.4,2.3,6.2,5,8.3,8.1c2.1,3.1,3.7,6.5,4.7,10c1,3.5,1.5,7,1.5,10.3c0,4.9-0.8,9.9-2.4,14.8
		c-1.6,4.9-4.2,9.3-7.7,13.1c-3.5,3.8-8.2,6.9-14,9.3c-5.8,2.4-12.9,3.6-21.3,3.6h-60.4V189.1h56.4c6.4,0,12.2,0.9,17.4,2.7
		c5.2,1.8,9.6,4.3,13.3,7.5c3.7,3.2,6.5,7.1,8.5,11.6C851.7,215.4,852.7,220.5,852.7,226.1z M805.7,242.3c3.5,0,6.3-1,8.4-3.1
		c2.1-2.1,3.2-4.8,3.2-8.3c0-3.6-0.9-6.6-2.6-9c-1.7-2.4-4.6-3.6-8.6-3.6h-18.4v24H805.7z M787.7,269.7v28h21.4
		c5.2,0,9.1-1.5,11.6-4.5c2.5-3,3.8-6.2,3.8-9.7c0-3.2-1.2-6.3-3.6-9.3c-2.4-3-6.4-4.5-12-4.5H787.7z"/>
	<path class="st1" d="M875.5,285.9h33.8c0.3,3.8,1.7,7,4.3,9.6c2.6,2.6,6.8,4,12.7,4c4.3,0,8.2-1,11.7-3c3.5-2,5.3-5.1,5.3-9.4
		c0-0.5-0.1-1.2-0.2-2.1c-0.1-0.9-0.6-1.8-1.5-2.8c-0.9-1-2.2-2-4.1-3.1c-1.9-1.1-4.5-2.2-8-3.4l-16.2-5.4
		c-7.7-2.1-13.9-4.8-18.6-8.1c-4.7-3.3-8.3-6.8-10.9-10.6c-2.6-3.8-4.3-7.6-5.2-11.4c-0.9-3.8-1.3-7.3-1.3-10.5
		c0-6.3,1.2-12,3.7-17.2c2.5-5.2,5.8-9.7,10.1-13.4c4.3-3.7,9.3-6.6,15.2-8.6c5.9-2,12.3-3,19.2-3c6.8,0,13.1,1,18.9,2.9
		c5.8,1.9,10.8,4.7,15,8.4c4.2,3.7,7.5,8.2,9.9,13.5c2.4,5.3,3.6,11.4,3.6,18.2h-33.4c0-3.7-1.1-6.8-3.4-9.2
		c-2.3-2.4-5.9-3.6-11-3.6c-4.5,0-8.1,1-10.7,3c-2.6,2-3.9,4.7-3.9,8c0,0.7,0.1,1.5,0.3,2.4c0.2,0.9,0.7,1.9,1.6,2.9
		c0.9,1,2.2,2,3.9,3c1.7,1,4.1,2,7,2.9l15.8,5c9.1,2.8,16.2,6.1,21.3,9.9c5.1,3.8,8.9,7.7,11.4,11.6c2.5,3.9,4,7.7,4.6,11.4
		c0.6,3.7,0.9,6.7,0.9,9.1c0,7.6-1.6,14.1-4.7,19.4c-3.1,5.3-7.2,9.7-12.1,13c-4.9,3.3-10.4,5.8-16.4,7.3s-11.9,2.3-17.8,2.3
		c-7.7,0-14.7-1-21-3c-6.3-2-11.6-4.9-16-8.6c-4.4-3.7-7.8-8.2-10.2-13.5C876.7,298.3,875.5,292.4,875.5,285.9z"/>
</g>
</svg>
